<svg xmlns="http://www.w3.org/2000/svg" style="display:none">
  <symbol id="account_circle" viewBox="0 0 24 24"><circle cx="12" cy="8" r="4"></circle><path d="M4 20c1.8-3.5 5-5 8-5s6.2 1.5 8 5"></path></symbol>
  <symbol id="logout" viewBox="0 0 24 24"><path d="M9 21H5a2 2 0 0 1-2-2V5a2 2 0 0 1 2-2h4"></path><path d="M16 17l5-5-5-5"></path><path d="M21 12H9"></path></symbol>
  <symbol id="home" viewBox="0 0 24 24"><path d="M3 11.5L12 4l9 7.5"></path><path d="M5 10.5V20h14v-9.5"></path></symbol>
  <symbol id="menu_book" viewBox="0 0 24 24"><path d="M4 5a3 3 0 0 1 3-3h13v18H7a3 3 0 0 0-3 3z"></path><path d="M7 2v18"></path></symbol>
  <symbol id="receipt_long" viewBox="0 0 24 24"><path d="M6 2h12v20l-2-1.5L14 22l-2-1.5L10 22l-2-1.5L6 22z"></path><path d="M9 7h6M9 11h6M9 15h4"></path></symbol>
  <symbol id="point_of_sale" viewBox="0 0 24 24"><rect x="3" y="5" width="18" height="14" rx="2"></rect><path d="M7 9h4M7 13h2M15 9h2M15 13h2"></path></symbol>
  <symbol id="inventory_2" viewBox="0 0 24 24"><path d="M3 7h18l-2 13H5z"></path><path d="M9 7V5a3 3 0 0 1 6 0v2"></path></symbol>
  <symbol id="people" viewBox="0 0 24 24"><circle cx="9" cy="8" r="3"></circle><circle cx="17" cy="9" r="2.5"></circle><path d="M3 19c1.2-2.6 3.3-4 6-4s4.8 1.4 6 4"></path><path d="M14 19c.7-1.7 2-2.7 3.8-2.9"></path></symbol>
  <symbol id="share" viewBox="0 0 24 24"><circle cx="18" cy="5" r="2.5"></circle><circle cx="6" cy="12" r="2.5"></circle><circle cx="18" cy="19" r="2.5"></circle><path d="M8.2 11l7.6-4.2M8.2 13l7.6 4.2"></path></symbol>
  <symbol id="print" viewBox="0 0 24 24"><path d="M7 9V4h10v5"></path><rect x="6" y="14" width="12" height="6"></rect><path d="M6 11H5a2 2 0 0 0-2 2v3h3"></path><path d="M18 16h3v-3a2 2 0 0 0-2-2h-1"></path></symbol>
  <symbol id="add" viewBox="0 0 24 24"><path d="M12 5v14M5 12h14"></path></symbol>
  <symbol id="list" viewBox="0 0 24 24"><path d="M8 6h13M8 12h13M8 18h13"></path><circle cx="4" cy="6" r="1"></circle><circle cx="4" cy="12" r="1"></circle><circle cx="4" cy="18" r="1"></circle></symbol>
  <symbol id="warning" viewBox="0 0 24 24"><path d="M12 3l10 18H2z"></path><path d="M12 9v5"></path><circle cx="12" cy="17" r="1"></circle></symbol>
  <symbol id="egg" viewBox="0 0 24 24"><path d="M12 3c3.5 0 6 5 6 10a6 6 0 1 1-12 0c0-5 2.5-10 6-10z"></path></symbol>
  <symbol id="history" viewBox="0 0 24 24"><path d="M3 12a9 9 0 1 0 3-6.7"></path><path d="M3 4v5h5"></path><path d="M12 8v5l3 2"></path></symbol>
  <symbol id="calculate" viewBox="0 0 24 24"><rect x="6" y="3" width="12" height="18" rx="2"></rect><path d="M9 7h6M9 11h2M13 11h2M9 15h2M13 15h2"></path></symbol>
  <symbol id="phone" viewBox="0 0 24 24"><path d="M22 16.9v3a2 2 0 0 1-2.2 2A19.8 19.8 0 0 1 2.1 4.2 2 2 0 0 1 4.1 2h3a2 2 0 0 1 2 1.7c.2 1.2.5 2.3.9 3.4a2 2 0 0 1-.5 2.1L8.1 10.6a16 16 0 0 0 5.3 5.3l1.4-1.4a2 2 0 0 1 2.1-.5c1.1.4 2.2.7 3.4.9a2 2 0 0 1 1.7 2z"></path></symbol>
  <symbol id="place" viewBox="0 0 24 24"><path d="M12 22s7-6 7-12a7 7 0 1 0-14 0c0 6 7 12 7 12z"></path><circle cx="12" cy="10" r="2.5"></circle></symbol>
  <symbol id="chat" viewBox="0 0 24 24"><path d="M21 12a8 8 0 0 1-8 8H6l-3 3V12a8 8 0 0 1 8-8h2a8 8 0 0 1 8 8z"></path></symbol>
  <symbol id="trending_up" viewBox="0 0 24 24"><path d="M3 17l7-7 4 4 7-7"></path><path d="M14 7h7v7"></path></symbol>
  <symbol id="savings" viewBox="0 0 24 24"><path d="M4 9h16v8a3 3 0 0 1-3 3H7a3 3 0 0 1-3-3z"></path><path d="M8 9V6h8v3"></path><circle cx="12" cy="14" r="2"></circle></symbol>
  <symbol id="pending_actions" viewBox="0 0 24 24"><path d="M8 6h13M8 12h13M8 18h8"></path><circle cx="4" cy="6" r="1"></circle><circle cx="4" cy="12" r="1"></circle><circle cx="4" cy="18" r="1"></circle></symbol>
  <symbol id="emoji_events" viewBox="0 0 24 24"><path d="M7 4h10v3a5 5 0 0 1-10 0z"></path><path d="M9 17h6M10 20h4"></path><path d="M5 6h2a4 4 0 0 1-4 4V8a2 2 0 0 1 2-2zm14 0h-2a4 4 0 0 0 4 4V8a2 2 0 0 0-2-2z"></path></symbol>
  <symbol id="error" viewBox="0 0 24 24"><circle cx="12" cy="12" r="9"></circle><path d="M12 8v5"></path><circle cx="12" cy="16" r="1"></circle></symbol>
  <symbol id="receipt" viewBox="0 0 24 24"><path d="M6 2h12v20l-2-1.5L14 22l-2-1.5L10 22l-2-1.5L6 22z"></path><path d="M9 7h6M9 11h6M9 15h6"></path></symbol>
  <symbol id="check_circle" viewBox="0 0 24 24"><circle cx="12" cy="12" r="9"></circle><path d="M8 12l3 3 5-5"></path></symbol>
  <symbol id="more_vert" viewBox="0 0 24 24"><circle cx="12" cy="5" r="1"></circle><circle cx="12" cy="12" r="1"></circle><circle cx="12" cy="19" r="1"></circle></symbol>
  <symbol id="content_copy" viewBox="0 0 24 24"><rect x="9" y="9" width="11" height="11" rx="2"></rect><path d="M5 15V5h10"></path></symbol>
</svg>
